HIERARCHY
ROOT Hips
{
	OFFSET 0.000000 83.214638 0.000000
	CHANNELS 6 Xposition Yposition Zposition Xrotation Yrotation Zrotation
	JOINT Pelvis
	{
		OFFSET 0.000000 0.000000 0.000000
		CHANNELS 3 Xrotation Yrotation Zrotation
		JOINT LeftUpLeg
		{
			OFFSET 8.479700 -4.795502 -0.379100
			CHANNELS 3 Xrotation Yrotation Zrotation
			JOINT LeftLeg
			{
				OFFSET 0.024144 -32.555107 0.112900
				CHANNELS 3 Xrotation Yrotation Zrotation
				JOINT LeftFoot
				{
					OFFSET -0.024144 -32.638630 -3.012600
					CHANNELS 3 Xrotation Yrotation Zrotation
					JOINT LeftToeBase
					{
						OFFSET 0.970200 -13.225400 11.864200
						CHANNELS 3 Xrotation Yrotation Zrotation
						End Site
						{
							OFFSET 0.000000 12.319262 0.000000
						}
					}
					JOINT LFootTongue
					{
						OFFSET 1.142400 -1.059800 6.665200
						CHANNELS 3 Xrotation Yrotation Zrotation
						End Site
						{
							OFFSET 0.000000 12.319262 0.000000
						}
					}
				}
				JOINT LeftPantLeg
				{
					OFFSET 0.918482 -16.533964 -2.284700
					CHANNELS 3 Xrotation Yrotation Zrotation
					End Site
					{
						OFFSET 0.350399 24.744368 0.000000
					}
				}
			}
		}
		JOINT RightUpLeg
		{
			OFFSET -8.479700 -4.795502 -0.379100
			CHANNELS 3 Xrotation Yrotation Zrotation
			JOINT RightLeg
			{
				OFFSET -0.023144 -32.555092 0.112900
				CHANNELS 3 Xrotation Yrotation Zrotation
				JOINT RightFoot
				{
					OFFSET 0.023144 -32.638641 -3.012700
					CHANNELS 3 Xrotation Yrotation Zrotation
					JOINT RightToeBase
					{
						OFFSET -0.970200 -13.225400 11.864200
						CHANNELS 3 Xrotation Yrotation Zrotation
						End Site
						{
							OFFSET 0.000000 12.319244 0.000000
						}
					}
					JOINT RFootTongue
					{
						OFFSET -1.142200 -1.059800 6.665200
						CHANNELS 3 Xrotation Yrotation Zrotation
						End Site
						{
							OFFSET 0.000000 12.319243 0.000000
						}
					}
				}
				JOINT RightPantLeg
				{
					OFFSET -0.919482 -16.533978 -2.284800
					CHANNELS 3 Xrotation Yrotation Zrotation
					End Site
					{
						OFFSET -0.350400 24.744419 0.000000
					}
				}
			}
		}
	}
	JOINT Spine
	{
		OFFSET 0.000000 7.722000 1.166200
		CHANNELS 3 Xrotation Yrotation Zrotation
		JOINT Spine1
		{
			OFFSET 0.000000 12.024101 0.248800
			CHANNELS 3 Xrotation Yrotation Zrotation
			JOINT Spine2
			{
				OFFSET 0.000000 11.502998 -0.491200
				CHANNELS 3 Xrotation Yrotation Zrotation
				JOINT Neck
				{
					OFFSET 0.000000 18.430702 -3.123100
					CHANNELS 3 Xrotation Yrotation Zrotation
					JOINT Head
					{
						OFFSET 0.000000 9.051102 1.034000
						CHANNELS 3 Xrotation Yrotation Zrotation
						JOINT HairB
						{
							OFFSET 0.208400 24.786102 24.822300
							CHANNELS 3 Xrotation Yrotation Zrotation
							End Site
							{
								OFFSET 0.000000 32.263779 0.000000
							}
						}
						JOINT HairA
						{
							OFFSET -7.081100 24.428299 23.196600
							CHANNELS 3 Xrotation Yrotation Zrotation
							End Site
							{
								OFFSET 0.000000 32.263779 0.000000
							}
						}
						JOINT Hat
						{
							OFFSET 16.728800 15.048294 -15.439601
							CHANNELS 3 Xrotation Yrotation Zrotation
							End Site
							{
								OFFSET 0.000000 32.263779 0.000000
							}
						}
					}
				}
				JOINT LeftShoulder
				{
					OFFSET 6.197800 13.665199 -4.064700
					CHANNELS 3 Xrotation Yrotation Zrotation
					JOINT LeftArm
					{
						OFFSET 7.778100 -0.187103 -1.709300
						CHANNELS 3 Xrotation Yrotation Zrotation
						JOINT LeftForeArm
						{
							OFFSET 22.049376 0.000000 0.000000
							CHANNELS 3 Xrotation Yrotation Zrotation
							JOINT LeftHand
							{
								OFFSET 23.009392 0.000000 0.000000
								CHANNELS 3 Xrotation Yrotation Zrotation
								JOINT LeftHandThumb1
								{
									OFFSET 3.507191 -2.063065 3.133727
									CHANNELS 3 Xrotation Yrotation Zrotation
									JOINT LeftHandThumb2
									{
										OFFSET 3.101337 -1.790558 1.790558
										CHANNELS 3 Xrotation Yrotation Zrotation
										JOINT LeftHandThumb3
										{
											OFFSET 3.058640 -1.765907 1.765906
											CHANNELS 3 Xrotation Yrotation Zrotation
											End Site
											{
												OFFSET -0.415260 3.926476 -0.049563
											}
										}
									}
								}
								JOINT LeftHandIndex1
								{
									OFFSET 11.334419 -0.901459 3.706815
									CHANNELS 3 Xrotation Yrotation Zrotation
									JOINT LeftHandIndex2
									{
										OFFSET 3.283112 0.000000 0.000000
										CHANNELS 3 Xrotation Yrotation Zrotation
										JOINT LeftHandIndex3
										{
											OFFSET 3.323853 0.000000 0.000000
											CHANNELS 3 Xrotation Yrotation Zrotation
											End Site
											{
												OFFSET -1.135597 3.097809 0.402452
											}
										}
									}
								}
								JOINT LeftHandMiddle1
								{
									OFFSET 11.335861 0.000000 0.000000
									CHANNELS 3 Xrotation Yrotation Zrotation
									JOINT LeftHandMiddle2
									{
										OFFSET 3.410492 0.000000 0.000000
										CHANNELS 3 Xrotation Yrotation Zrotation
										JOINT LeftHandMiddle3
										{
											OFFSET 3.312172 0.000000 0.000000
											CHANNELS 3 Xrotation Yrotation Zrotation
											End Site
											{
												OFFSET -1.150200 3.080154 0.400270
											}
										}
									}
								}
								JOINT LeftHandRing1
								{
									OFFSET 11.514786 -0.013176 -3.003090
									CHANNELS 3 Xrotation Yrotation Zrotation
									JOINT LeftHandRing2
									{
										OFFSET 3.053307 0.000000 0.000000
										CHANNELS 3 Xrotation Yrotation Zrotation
										JOINT LeftHandRing3
										{
											OFFSET 3.295807 0.000000 0.000000
											CHANNELS 3 Xrotation Yrotation Zrotation
											End Site
											{
												OFFSET -1.281006 3.013344 0.375733
											}
										}
									}
								}
								JOINT LeftHandPinky1
								{
									OFFSET 10.518692 -0.960396 -5.730441
									CHANNELS 3 Xrotation Yrotation Zrotation
									JOINT LeftHandPinky2
									{
										OFFSET 2.861649 0.000000 0.000000
										CHANNELS 3 Xrotation Yrotation Zrotation
										JOINT LeftHandPinky3
										{
											OFFSET 2.863380 0.000000 0.000000
											CHANNELS 3 Xrotation Yrotation Zrotation
											End Site
											{
												OFFSET -0.843597 2.711159 0.369971
											}
										}
									}
								}
							}
							JOINT LSleeve
							{
								OFFSET 6.676277 -0.344902 -1.011730
								CHANNELS 3 Xrotation Yrotation Zrotation
								End Site
								{
									OFFSET 0.000000 14.885353 0.000000
								}
							}
						}
					}
				}
				JOINT RightShoulder
				{
					OFFSET -6.197800 13.665199 -4.064700
					CHANNELS 3 Xrotation Yrotation Zrotation
					JOINT RightArm
					{
						OFFSET -7.778100 -0.187103 -1.709300
						CHANNELS 3 Xrotation Yrotation Zrotation
						JOINT RightForeArm
						{
							OFFSET -22.049376 0.000000 0.000000
							CHANNELS 3 Xrotation Yrotation Zrotation
							JOINT RightHand
							{
								OFFSET -23.009392 0.000000 0.000000
								CHANNELS 3 Xrotation Yrotation Zrotation
								JOINT RightHandThumb1
								{
									OFFSET -3.507191 -2.063065 3.133727
									CHANNELS 3 Xrotation Yrotation Zrotation
									JOINT RightHandThumb2
									{
										OFFSET -3.101337 -1.790558 1.790558
										CHANNELS 3 Xrotation Yrotation Zrotation
										JOINT RightHandThumb3
										{
											OFFSET -3.058640 -1.765907 1.765906
											CHANNELS 3 Xrotation Yrotation Zrotation
											End Site
											{
												OFFSET 0.415260 3.926476 -0.049563
											}
										}
									}
								}
								JOINT RightHandIndex1
								{
									OFFSET -11.334419 -0.901459 3.706815
									CHANNELS 3 Xrotation Yrotation Zrotation
									JOINT RightHandIndex2
									{
										OFFSET -3.283112 0.000000 0.000000
										CHANNELS 3 Xrotation Yrotation Zrotation
										JOINT RightHandIndex3
										{
											OFFSET -3.323853 0.000000 0.000000
											CHANNELS 3 Xrotation Yrotation Zrotation
											End Site
											{
												OFFSET 1.135597 3.097809 0.402452
											}
										}
									}
								}
								JOINT RightHandMiddle1
								{
									OFFSET -11.335861 0.000000 0.000000
									CHANNELS 3 Xrotation Yrotation Zrotation
									JOINT RightHandMiddle2
									{
										OFFSET -3.410492 0.000000 0.000000
										CHANNELS 3 Xrotation Yrotation Zrotation
										JOINT RightHandMiddle3
										{
											OFFSET -3.312172 0.000000 0.000000
											CHANNELS 3 Xrotation Yrotation Zrotation
											End Site
											{
												OFFSET 1.150200 3.080154 0.400270
											}
										}
									}
								}
								JOINT RightHandRing1
								{
									OFFSET -11.514786 -0.013176 -3.003090
									CHANNELS 3 Xrotation Yrotation Zrotation
									JOINT RightHandRing2
									{
										OFFSET -3.053307 0.000000 0.000000
										CHANNELS 3 Xrotation Yrotation Zrotation
										JOINT RightHandRing3
										{
											OFFSET -3.295807 0.000000 0.000000
											CHANNELS 3 Xrotation Yrotation Zrotation
											End Site
											{
												OFFSET 1.281006 3.013344 0.375733
											}
										}
									}
								}
								JOINT RightHandPinky1
								{
									OFFSET -10.518692 -0.960396 -5.730441
									CHANNELS 3 Xrotation Yrotation Zrotation
									JOINT RightHandPinky2
									{
										OFFSET -2.861649 0.000000 0.000000
										CHANNELS 3 Xrotation Yrotation Zrotation
										JOINT RightHandPinky3
										{
											OFFSET -2.863380 0.000000 0.000000
											CHANNELS 3 Xrotation Yrotation Zrotation
											End Site
											{
												OFFSET 0.843597 2.711159 0.369971
											}
										}
									}
								}
							}
							JOINT RSleeve
							{
								OFFSET -6.676277 -0.344902 -1.011730
								CHANNELS 3 Xrotation Yrotation Zrotation
								End Site
								{
									OFFSET 0.000000 14.885353 0.000000
								}
							}
						}
					}
				}
				JOINT Backpack
				{
					OFFSET 0.000000 -2.471497 36.677502
					CHANNELS 3 Xrotation Yrotation Zrotation
					End Site
					{
						OFFSET 0.000000 20.427315 0.000000
					}
				}
				JOINT Hood
				{
					OFFSET 0.000000 18.754097 -10.431000
					CHANNELS 3 Xrotation Yrotation Zrotation
					JOINT Hood1
					{
						OFFSET 0.000000 -5.011002 -7.685901
						CHANNELS 3 Xrotation Yrotation Zrotation
						End Site
						{
							OFFSET 0.000000 9.175140 0.000000
						}
					}
				}
				JOINT LHoodieString
				{
					OFFSET 5.250500 16.397697 3.089900
					CHANNELS 3 Xrotation Yrotation Zrotation
					JOINT LHoodieString1
					{
						OFFSET 0.257700 -6.364304 3.694600
						CHANNELS 3 Xrotation Yrotation Zrotation
						JOINT LHoodieString2
						{
							OFFSET 0.000000 -9.643799 2.679100
							CHANNELS 3 Xrotation Yrotation Zrotation
							End Site
							{
								OFFSET 0.000000 10.009018 0.000000
							}
						}
					}
				}
				JOINT RHoodieString
				{
					OFFSET -5.250500 16.397697 3.089900
					CHANNELS 3 Xrotation Yrotation Zrotation
					JOINT RHoodieString1
					{
						OFFSET -0.257700 -6.364304 3.694600
						CHANNELS 3 Xrotation Yrotation Zrotation
						JOINT RHoodieString2
						{
							OFFSET 0.000000 -9.643799 2.679100
							CHANNELS 3 Xrotation Yrotation Zrotation
							End Site
							{
								OFFSET 0.000000 10.009018 0.000000
							}
						}
					}
				}
			}
			JOINT LBackpack_Strap
			{
				OFFSET 15.223200 -7.719803 -6.610900
				CHANNELS 3 Xrotation Yrotation Zrotation
				End Site
				{
					OFFSET 0.000000 16.040596 0.000000
				}
			}
			JOINT RBackpack_Strap
			{
				OFFSET -15.223000 -7.719803 -6.610900
				CHANNELS 3 Xrotation Yrotation Zrotation
				End Site
				{
					OFFSET 0.000000 16.040596 0.000000
				}
			}
		}
	}
	JOINT BoyFacialAnim_Joint
	{
		OFFSET 1.000000 -82.208099 -1.550900
		CHANNELS 3 Xrotation Yrotation Zrotation
		End Site
		{
			OFFSET 0.000000 30.012791 0.000000
		}
	}
}
MOTION
Frames: 4
Frame Time: 0.016667
-13.640238 70.082344 -2.100052 -6.210737 -41.726486 2.018597 -0.000001 0.000003 0.000000 -25.269659 8.002862 22.832913 49.686119 -9.306663 9.449012 -17.635045 -11.357201 -27.129040 -0.000000 -0.000002 0.000000 -0.000000 -0.000002 -0.000000 -0.000000 -0.000001 -0.000001 -31.767941 -7.767108 -34.418744 59.063610 -9.540757 -8.611940 -17.539250 -5.548910 23.576239 -0.000000 0.000001 -0.000000 -0.000000 0.000001 -0.000000 -0.000001 -0.000000 -0.000002 9.611433 6.434238 -1.350849 2.766069 -0.356993 -2.318340 2.765116 -0.254304 -2.356228 2.319643 13.599728 3.258860 11.523877 19.676542 -2.051254 0.000002 -0.000000 -0.000001 0.000002 -0.000000 -0.000001 0.000002 -0.000000 -0.000001 2.217712 0.696462 -13.443604 -68.029750 -0.403267 -40.075715 0.000283 -108.716756 0.000269 0.135989 -4.421007 -12.826685 -6.141211 -11.690801 -6.761694 9.914130 42.595512 3.409859 -0.000003 0.000002 -0.000002 0.255313 3.378229 -45.814327 5.654101 5.847767 -88.067462 -0.000000 -0.000001 -0.000002 -0.461476 3.841595 -39.722686 6.450753 5.820358 -95.892864 0.000004 -0.000000 0.000002 0.469721 4.966825 -39.799444 8.181035 5.368625 -113.502991 -0.000003 0.000001 0.000002 -3.762425 9.063699 -45.253825 5.342544 5.829024 -85.005324 -0.000003 -0.000000 -0.000000 0.000001 -0.000002 0.000001 2.599452 11.718737 -12.158734 -64.262900 18.736208 84.603142 -0.000868 87.058185 0.000865 -17.320414 37.211933 21.718798 -7.341090 13.749666 7.412325 9.855807 -44.489089 -3.903231 -0.000001 -0.000001 0.000002 -0.124366 -2.384800 45.108864 4.500591 -4.654556 88.071143 -0.000002 -0.000000 0.000005 -0.761618 -2.932909 39.031065 5.133887 -4.632765 95.881629 -0.000000 0.000000 0.000002 0.154765 -4.068817 39.122671 6.509729 -4.273607 113.462863 -0.000002 -0.000001 0.000000 -4.198870 -8.025509 44.637779 4.252923 -4.639649 85.014805 0.000001 0.000001 -0.000003 -0.000000 0.000000 -0.000000 0.000001 0.000000 0.000001 0.000001 0.000000 0.000001 0.000001 0.000000 0.000001 0.000001 0.000000 0.000001 0.000001 0.000000 0.000001 0.000000 0.000002 -0.000000 0.000001 0.000000 0.000001 0.000001 0.000000 0.000001 0.000000 0.000002 -0.000000 -0.000000 0.000002 -0.000000 -0.000000 0.000002 -0.000000 -0.000001 0.000003 0.000000 
-14.264215 70.409164 -2.378087 -6.548067 -41.895796 1.925372 0.000001 -0.000002 -0.000000 -25.213476 7.647267 22.842294 49.372132 -9.789464 9.736943 -13.798821 -11.056824 -27.473259 0.000000 0.000001 -0.000000 0.000000 0.000001 -0.000000 0.000001 0.000003 -0.000001 -31.369184 -8.363986 -34.328592 58.818440 -9.523653 -8.354611 -18.041231 -5.190676 22.958240 0.000000 -0.000000 0.000001 0.000000 -0.000000 0.000001 -0.000001 -0.000000 -0.000003 9.599077 6.289778 -1.253950 2.786419 -0.645097 -2.360987 2.784639 -0.532872 -2.409948 2.357360 13.650868 3.291964 11.963595 19.954411 -2.414290 0.000000 -0.000000 0.000001 0.000000 -0.000000 0.000001 0.000000 -0.000000 0.000001 2.119630 1.326094 -13.029243 -67.198816 -0.218721 -41.239193 0.000130 -108.751290 0.000149 0.302970 -4.918422 -12.653550 -6.141213 -11.690802 -6.761699 9.914138 42.595512 3.409867 -0.000003 0.000003 -0.000002 0.255315 3.378226 -45.814331 5.654100 5.847767 -88.067462 -0.000002 0.000001 -0.000003 -0.461475 3.841593 -39.722686 6.450755 5.820354 -95.892864 0.000001 -0.000000 -0.000002 0.469721 4.966823 -39.799447 8.181036 5.368627 -113.502991 -0.000001 0.000001 -0.000002 -3.762426 9.063695 -45.253818 5.342543 5.829025 -85.005324 -0.000000 -0.000000 -0.000000 0.000001 -0.000001 0.000000 2.565277 11.280108 -12.138845 -64.922096 18.398006 84.997920 0.004600 87.809042 -0.004623 -17.630036 37.319737 21.737770 -7.341087 13.749665 7.412327 9.855806 -44.489093 -3.903231 -0.000001 -0.000002 -0.000003 -0.124367 -2.384799 45.108864 4.500591 -4.654554 88.071143 -0.000000 0.000000 0.000004 -0.761617 -2.932911 39.031065 5.133888 -4.632765 95.881629 -0.000001 -0.000001 -0.000002 0.154765 -4.068817 39.122668 6.509728 -4.273607 113.462863 -0.000001 -0.000000 0.000002 -4.198872 -8.025510 44.637776 4.252924 -4.639649 85.014798 0.000002 0.000000 0.000000 -0.000002 -0.000001 -0.000001 -0.000000 0.000004 -0.000001 -0.000000 0.000004 -0.000001 -0.000000 0.000004 -0.000001 -0.000000 0.000004 -0.000001 -0.000000 0.000004 -0.000001 -0.000000 -0.000002 0.000000 -0.000000 0.000004 -0.000001 -0.000000 0.000004 -0.000001 -0.000000 -0.000002 0.000000 -0.000001 0.000002 -0.000000 -0.000001 0.000002 -0.000000 0.000001 -0.000002 -0.000000 
-14.867203 70.785515 -2.636094 -6.720648 -42.061770 1.933670 -0.000000 0.000002 -0.000000 -25.419386 7.286851 22.600597 49.686061 -9.827769 9.894870 -10.856939 -10.602313 -26.241414 -0.000000 -0.000000 -0.000001 -0.000000 -0.000000 -0.000000 0.000001 0.000002 -0.000001 -30.945497 -8.939080 -34.120108 58.363557 -9.511752 -8.138355 -18.409183 -4.944301 22.356172 0.000000 -0.000000 -0.000000 0.000000 -0.000000 -0.000000 -0.000001 0.000000 -0.000000 9.577544 6.168057 -1.200779 2.771245 -0.888552 -2.411324 2.769533 -0.770333 -2.469700 2.323235 13.688403 3.351657 12.263285 20.206071 -2.684246 -0.000000 -0.000000 0.000001 -0.000000 -0.000000 0.000001 -0.000000 -0.000000 0.000001 2.040252 1.891022 -12.727013 -66.041898 -0.227467 -42.512723 0.000091 -108.614672 0.000094 0.616239 -5.150689 -12.859904 -6.141214 -11.690803 -6.761702 9.914133 42.595512 3.409868 -0.000005 0.000005 -0.000000 0.255314 3.378226 -45.814327 5.654100 5.847767 -88.067462 -0.000000 -0.000001 -0.000000 -0.461476 3.841593 -39.722686 6.450754 5.820356 -95.892857 -0.000000 -0.000001 -0.000000 0.469722 4.966823 -39.799451 8.181035 5.368626 -113.502991 0.000001 0.000001 -0.000002 -3.762423 9.063696 -45.253825 5.342544 5.829027 -85.005331 0.000000 -0.000001 -0.000002 0.000001 0.000002 -0.000003 2.522556 10.738726 -12.141174 -65.351250 18.105127 85.470023 -0.000236 88.672719 0.000111 -17.925709 37.372097 21.709954 -7.341090 13.749664 7.412335 9.855800 -44.489089 -3.903227 -0.000002 0.000004 -0.000002 -0.124368 -2.384799 45.108868 4.500591 -4.654554 88.071150 0.000001 -0.000000 0.000003 -0.761617 -2.932910 39.031068 5.133888 -4.632763 95.881635 -0.000001 0.000000 -0.000000 0.154765 -4.068816 39.122675 6.509730 -4.273607 113.462863 -0.000002 -0.000001 0.000000 -4.198869 -8.025512 44.637783 4.252925 -4.639648 85.014798 -0.000000 0.000001 -0.000001 -0.000000 0.000001 -0.000001 -0.000000 -0.000001 0.000000 -0.000000 -0.000001 0.000000 -0.000000 -0.000001 0.000000 -0.000000 -0.000001 0.000000 -0.000000 -0.000001 0.000001 -0.000001 0.000001 0.000000 -0.000000 -0.000001 0.000000 -0.000000 -0.000001 0.000001 -0.000001 0.000001 0.000000 0.000000 0.000001 -0.000000 0.000000 0.000001 -0.000000 -0.000000 0.000002 -0.000000 
-15.441828 71.191071 -2.862268 -6.743184 -42.240041 2.023406 -0.000001 -0.000000 -0.000000 -25.887201 6.819128 22.346601 50.335260 -9.668486 9.893818 -8.140293 -10.214993 -24.666607 -0.000002 -0.000001 -0.000000 -0.000002 -0.000001 -0.000000 0.000000 0.000000 0.000001 -30.503427 -9.466650 -33.789414 57.741388 -9.505134 -7.972661 -18.658164 -4.809301 21.784644 0.000000 -0.000000 0.000000 0.000000 -0.000000 0.000000 -0.000000 0.000001 -0.000000 9.545433 6.078319 -1.179815 2.720343 -1.070412 -2.460028 2.719148 -0.949817 -2.525621 2.229914 13.710769 3.433356 12.372785 20.430359 -2.883343 0.000002 0.000000 0.000001 0.000002 0.000000 0.000001 0.000002 0.000000 0.000001 1.997482 2.324994 -12.601865 -64.622503 -0.436642 -43.747744 -0.000056 -108.319403 -0.000042 1.063109 -5.154254 -13.436451 -6.141212 -11.690802 -6.761701 9.914130 42.595512 3.409861 0.000001 -0.000001 0.000002 0.255315 3.378227 -45.814334 5.654099 5.847766 -88.067462 -0.000002 -0.000001 -0.000000 -0.461475 3.841593 -39.722686 6.450754 5.820356 -95.892864 0.000000 -0.000001 -0.000000 0.469722 4.966825 -39.799451 8.181037 5.368628 -113.502991 -0.000001 0.000001 -0.000000 -3.762424 9.063694 -45.253825 5.342544 5.829022 -85.005331 -0.000001 -0.000004 0.000006 0.000001 0.000001 -0.000000 2.474452 10.139568 -12.169916 -65.449318 17.878894 85.928390 -0.002996 89.657366 0.003855 -18.193409 37.393462 21.742331 -7.341087 13.749666 7.412322 9.855801 -44.489089 -3.903234 -0.000001 -0.000002 0.000000 -0.124367 -2.384798 45.108857 4.500590 -4.654555 88.071143 -0.000001 -0.000001 0.000007 -0.761617 -2.932911 39.031065 5.133889 -4.632765 95.881635 0.000001 0.000000 -0.000000 0.154766 -4.068817 39.122671 6.509729 -4.273606 113.462863 -0.000001 -0.000001 0.000000 -4.198871 -8.025510 44.637776 4.252923 -4.639648 85.014798 -0.000000 -0.000001 0.000003 0.000001 -0.000003 0.000002 -0.000000 0.000000 0.000000 -0.000000 0.000000 0.000000 -0.000000 0.000000 0.000000 -0.000000 0.000000 0.000000 -0.000000 0.000000 0.000000 -0.000000 0.000000 0.000000 -0.000000 0.000000 0.000000 -0.000000 0.000000 0.000000 -0.000000 0.000000 0.000000 -0.000000 -0.000003 0.000000 -0.000000 -0.000003 0.000000 -0.000001 -0.000000 -0.000000 
